<svg width="613" height="155" viewBox="0 0 613 155" fill="none" xmlns="http://www.w3.org/2000/svg">
<path d="M146.694 60.1092H133.639V51.832H168.628V60.1092H155.498V103.123H146.698V60.1092H146.694Z" fill="#394C53"/>
<path d="M197.75 72.5669C196.429 71.1485 194.598 70.444 192.248 70.444C189.899 70.444 187.886 71.2745 186.195 72.9355C184.509 74.5965 183.663 76.8175 183.663 79.603V103.123H175.372V49.9984H183.663V68.0224C185.078 66.3614 186.755 65.1063 188.689 64.2478C190.618 63.3939 192.589 62.9647 194.593 62.9647C197.185 62.9647 199.507 63.5852 201.562 64.831C203.617 66.0768 205.205 67.8124 206.331 70.0334C207.456 72.2543 208.022 74.8065 208.022 77.69V103.114H199.731V78.4179C199.731 75.9263 199.072 73.976 197.75 72.5576V72.5669Z" fill="#394C53"/>
<path d="M225.252 101.542C222.025 99.8573 219.47 97.4637 217.587 94.3609C215.705 91.2628 214.762 87.6562 214.762 83.5549C214.762 79.4537 215.668 76.1269 217.475 73.0008C219.283 69.8747 221.777 67.4205 224.958 65.6382C228.139 63.8558 231.707 62.9647 235.668 62.9647C239.629 62.9647 243.09 63.7952 246.196 65.4562C249.302 67.1172 251.745 69.4968 253.529 72.5996C255.314 75.7023 256.206 79.281 256.206 83.3356C256.206 84.2641 256.159 85.3139 256.061 86.485H222.978C223.566 89.7604 225.07 92.322 227.49 94.179C229.909 96.036 232.758 96.9645 236.037 96.9645C241.511 96.9645 245.645 94.8882 248.434 90.7356L254.963 94.6176C252.763 97.9863 250.073 100.403 246.892 101.873C243.711 103.338 240.073 104.071 235.962 104.071C231.852 104.071 228.48 103.226 225.252 101.542ZM248.139 80.1115C247.551 76.8875 246.159 74.4099 243.959 72.6742C241.759 70.9385 239.017 70.0754 235.743 70.0754C232.469 70.0754 229.704 70.9805 227.457 72.7862C225.206 74.5919 223.739 77.0368 223.057 80.1115H248.144H248.139Z" fill="#394C53"/>
<path d="M263.03 63.9911H270.438L270.952 68.9742C272.222 67.2619 273.74 65.9321 275.501 64.9803C277.262 64.0285 279.214 63.5526 281.368 63.5526C281.858 63.5526 282.493 63.5992 283.273 63.6972V71.6851C282.297 71.5871 281.559 71.5404 281.073 71.5404C278.089 71.5404 275.716 72.4083 273.955 74.1393C272.194 75.875 271.316 78.2312 271.316 81.2127V103.123H263.025V63.9958L263.03 63.9911Z" fill="#394C53"/>
<path d="M289.654 63.9911H297.062L297.575 68.3164C298.897 66.5573 300.471 65.2276 302.307 64.3224C304.143 63.4172 306.058 62.9647 308.066 62.9647C310.364 62.9647 312.466 63.5386 314.376 64.6863C316.282 65.8341 317.777 67.4858 318.851 69.6321C320.075 67.4858 321.714 65.8341 323.765 64.6863C325.82 63.5386 328.09 62.9647 330.584 62.9647C332.882 62.9647 334.998 63.5246 336.927 64.649C338.861 65.7735 340.398 67.4345 341.551 69.6321C342.7 71.8297 343.275 74.4426 343.275 77.4707V103.114H334.989V77.9093C334.989 75.5624 334.377 73.7334 333.153 72.4129C331.929 71.0925 330.365 70.4346 328.459 70.4346C326.259 70.4346 324.4 71.2185 322.882 72.7815C321.369 74.3446 320.607 76.3462 320.607 78.7864V103.114H312.317V77.9093C312.317 75.5624 311.705 73.7334 310.481 72.4129C309.257 71.0925 307.692 70.4346 305.787 70.4346C303.587 70.4346 301.728 71.2185 300.21 72.7815C298.692 74.3446 297.935 76.3462 297.935 78.7864V103.114H289.644V63.9865L289.654 63.9911Z" fill="#394C53"/>
<path d="M360.365 101.434C357.138 99.6754 354.606 97.2351 352.775 94.109C350.94 90.9829 350.024 87.4649 350.024 83.5596C350.024 79.6543 350.94 76.1316 352.775 73.0055C354.611 69.8794 357.152 67.4252 360.403 65.6429C363.654 63.8605 367.259 62.9694 371.22 62.9694C375.181 62.9694 378.862 63.8605 382.113 65.6429C385.364 67.4252 387.909 69.8794 389.74 73.0055C391.576 76.1316 392.491 79.6497 392.491 83.5596C392.491 87.4696 391.576 90.9876 389.74 94.109C387.904 97.2351 385.364 99.68 382.113 101.434C378.857 103.193 375.228 104.071 371.22 104.071C367.213 104.071 363.593 103.193 360.365 101.434ZM377.97 94.9116C379.973 93.7918 381.538 92.2287 382.664 90.2224C383.789 88.2208 384.35 85.9952 384.35 83.555C384.35 81.1147 383.789 78.8891 382.664 76.8875C381.538 74.8859 379.973 73.3228 377.97 72.1983C375.966 71.0739 373.714 70.514 371.22 70.514C368.726 70.514 366.563 71.0739 364.583 72.1983C362.603 73.3228 361.052 74.8859 359.926 76.8875C358.801 78.8891 358.24 81.1147 358.24 83.555C358.24 85.9952 358.801 88.2208 359.926 90.2224C361.052 92.224 362.603 93.7918 364.583 94.9116C366.563 96.036 368.777 96.6006 371.22 96.6006C373.663 96.6006 375.961 96.0407 377.97 94.9116Z" fill="#394C53"/>
<path d="M421.978 72.5996C420.656 71.1578 418.797 70.4393 416.401 70.4393C414.005 70.4393 411.927 71.3071 410.315 73.0382C408.699 74.7738 407.896 76.9574 407.896 79.5983V103.119H399.605V63.9911H407.088L407.527 68.5356C408.895 66.7766 410.572 65.4095 412.552 64.4297C414.533 63.4546 416.621 62.9647 418.825 62.9647C421.464 62.9647 423.8 63.5852 425.832 64.831C427.859 66.0768 429.438 67.8218 430.563 70.0707C431.684 72.3196 432.249 74.9325 432.249 77.9093V103.114H423.959V78.4925C423.959 76.001 423.3 74.0366 421.978 72.5949V72.5996Z" fill="#394C53"/>
<path d="M449.34 101.434C446.112 99.6754 443.581 97.2351 441.75 94.109C439.914 90.9829 438.999 87.4649 438.999 83.5596C438.999 79.6543 439.914 76.1316 441.75 73.0055C443.585 69.8794 446.126 67.4252 449.377 65.6429C452.628 63.8605 456.234 62.9694 460.195 62.9694C464.156 62.9694 467.836 63.8605 471.087 65.6429C474.338 67.4252 476.884 69.8794 478.715 73.0055C480.55 76.1316 481.466 79.6497 481.466 83.5596C481.466 87.4696 480.55 90.9876 478.715 94.109C476.879 97.2351 474.338 99.68 471.087 101.434C467.832 103.193 464.202 104.071 460.195 104.071C456.187 104.071 452.567 103.193 449.34 101.434ZM466.944 94.9116C468.948 93.7918 470.513 92.2287 471.638 90.2224C472.764 88.2208 473.325 85.9952 473.325 83.555C473.325 81.1147 472.764 78.8891 471.638 76.8875C470.513 74.8859 468.948 73.3228 466.944 72.1983C464.94 71.0739 462.689 70.514 460.195 70.514C457.701 70.514 455.538 71.0739 453.558 72.1983C451.577 73.3228 450.027 74.8859 448.901 76.8875C447.775 78.8891 447.215 81.1147 447.215 83.555C447.215 85.9952 447.775 88.2208 448.901 90.2224C450.027 92.224 451.577 93.7918 453.558 94.9116C455.538 96.036 457.752 96.6006 460.195 96.6006C462.638 96.6006 464.936 96.0407 466.944 94.9116Z" fill="#394C53"/>
<path d="M483.302 63.9911H492.101L497.604 80.4755L501.42 95.2055L505.161 80.4755L510.588 63.9911H519.388L505.82 103.119H496.945L483.302 63.9911Z" fill="#394C53"/>
<path d="M547.703 99.6007C546.381 101.066 544.793 102.176 542.934 102.937C541.075 103.697 539.048 104.071 536.848 104.071C534.256 104.071 531.883 103.534 529.734 102.461C527.581 101.388 525.871 99.848 524.596 97.8464C523.326 95.8447 522.691 93.5211 522.691 90.885C522.691 88.3934 523.302 86.1445 524.526 84.1428C525.745 82.1412 527.436 80.5782 529.585 79.4537C531.733 78.3292 534.181 77.7693 536.918 77.7693C538.973 77.7693 540.865 78.1006 542.602 78.7585C544.34 79.4164 545.844 80.3309 547.114 81.5067V78.1379C547.114 75.6464 546.344 73.7194 544.802 72.3477C543.261 70.9806 541.196 70.2947 538.604 70.2947C535.082 70.2947 531.271 71.5638 527.161 74.1067L523.933 67.3646C528.87 64.4344 533.91 62.9694 539.043 62.9694C544.176 62.9694 548.002 64.3364 550.963 67.0753C553.92 69.8095 555.4 73.5468 555.4 78.2872V103.128H548.212L547.698 99.61L547.703 99.6007ZM544.914 95.6441C546.428 94.375 547.189 92.7373 547.189 90.7356C547.189 88.734 546.428 87.045 544.914 85.8272C543.401 84.6094 541.421 83.9935 538.973 83.9935C536.526 83.9935 534.559 84.6048 533.069 85.8272C531.579 87.0497 530.832 88.6874 530.832 90.7356C530.832 92.7839 531.589 94.375 533.107 95.6441C534.62 96.9132 536.577 97.5477 538.973 97.5477C541.369 97.5477 543.396 96.9132 544.914 95.6441Z" fill="#394C53"/>
<path d="M65.2904 103.156C69.8795 103.156 73.5998 99.4398 73.5998 94.8555C73.5998 90.2713 69.8795 86.5551 65.2904 86.5551C60.7012 86.5551 56.981 90.2713 56.981 94.8555C56.981 99.4398 60.7012 103.156 65.2904 103.156Z" fill="#EF6416"/>
<path d="M113.526 93.6751C113.886 96.1573 113.096 98.5415 111.569 100.296C110.042 102.05 107.79 103.156 105.282 103.151C103.171 103.147 101.246 102.354 99.7844 101.047C99.7657 101.033 99.7517 101.019 99.7377 101.005C99.5228 100.814 99.3126 100.599 99.1071 100.375C99.0277 100.282 98.9436 100.189 98.8689 100.095C95.0201 95.5181 93.32 85.8365 84.9919 78.6045L84.2399 77.9513C75.9165 70.7239 66.089 70.3833 61.0118 67.2152C60.9511 67.1779 60.8904 67.1452 60.8344 67.1033C60.8203 67.0986 60.8063 67.0893 60.7923 67.0753C60.7923 67.0753 60.7876 67.0753 60.783 67.0706C60.7316 67.0426 60.6849 67.0053 60.6335 66.9726C60.5961 66.9446 60.5588 66.9213 60.5214 66.8933C60.442 66.8373 60.3673 66.7813 60.2925 66.7253C60.2318 66.6787 60.1758 66.6367 60.1197 66.59C60.115 66.59 60.1104 66.5807 60.1057 66.576C60.045 66.5294 59.9843 66.4827 59.9282 66.4267C59.9049 66.408 59.8815 66.3894 59.8581 66.3707C59.8348 66.3474 59.8114 66.3334 59.7881 66.3054C59.6573 66.1934 59.5265 66.0674 59.4051 65.9461C59.3397 65.8808 59.2743 65.8108 59.2136 65.7408C59.1015 65.6195 58.9894 65.4935 58.8866 65.3676C58.8072 65.2696 58.7325 65.1716 58.6531 65.069C58.5877 64.9803 58.5223 64.8917 58.4616 64.803C58.4289 64.7563 58.3962 64.7097 58.3682 64.663C58.3121 64.579 58.2561 64.4951 58.2047 64.4064C58.1346 64.2944 58.0646 64.1731 58.0038 64.0565C58.0038 64.0565 58.0038 64.0565 58.0038 64.0518C57.9478 63.9445 57.8917 63.8418 57.8404 63.7345C57.8217 63.7019 57.8077 63.6692 57.7936 63.6365C57.7469 63.5386 57.7002 63.4406 57.6629 63.3379C57.6629 63.3333 57.6582 63.3286 57.6582 63.3239C57.6115 63.2166 57.5694 63.1093 57.5274 63.002C57.4947 62.9133 57.462 62.82 57.4293 62.7267C57.3966 62.6381 57.3686 62.5447 57.3406 62.4514C57.3266 62.4048 57.3125 62.3628 57.3032 62.3161C57.2799 62.2321 57.2565 62.1482 57.2378 62.0642C57.2285 62.0362 57.2238 62.0128 57.2191 61.9849C57.1958 61.8869 57.1724 61.7842 57.1537 61.6816C57.1444 61.6396 57.1351 61.5929 57.1304 61.5509C57.1164 61.4716 57.1024 61.3876 57.093 61.3036C57.093 61.2943 57.0883 61.2803 57.0883 61.2756C57.0837 61.243 57.079 61.2103 57.0743 61.1777C57.0557 61.047 57.0416 60.9117 57.0323 60.7811C57.023 60.7157 57.0183 60.6458 57.0183 60.5758C57.0183 60.5384 57.0136 60.5058 57.0183 60.4685C57.0089 60.3565 57.0043 60.2352 57.0043 60.1185V60.0859C57.0043 59.9459 57.0043 59.8059 57.0183 59.6706C57.0183 59.5493 57.0323 59.4326 57.0416 59.3113C57.0463 59.2413 57.0557 59.1714 57.065 59.0967C57.0743 59.0174 57.0837 58.9427 57.0977 58.8634C57.0977 58.8261 57.107 58.7841 57.1164 58.7514C57.1257 58.6721 57.1397 58.5975 57.1537 58.5228C57.1724 58.4248 57.1911 58.3269 57.2191 58.2242C57.2191 58.2195 57.2191 58.2102 57.2238 58.2055C57.2518 58.0889 57.2799 57.9722 57.3125 57.8556C57.3452 57.7343 57.3826 57.6176 57.42 57.501C57.4573 57.3844 57.4994 57.2677 57.5414 57.1511C57.5835 57.0391 57.6302 56.9224 57.6815 56.8105C57.6815 56.8105 57.6815 56.8011 57.6862 56.7965C57.831 56.4652 57.9945 56.1432 58.1813 55.8306C58.2467 55.7233 58.3121 55.6253 58.3775 55.5227C58.4476 55.42 58.5176 55.3221 58.5877 55.2241C58.6437 55.1448 58.6998 55.0654 58.7652 54.9908C58.7839 54.9581 58.8119 54.9301 58.8352 54.9021C58.8866 54.8368 58.938 54.7762 58.9894 54.7155L59.0454 54.6502C59.1529 54.5242 59.2696 54.4029 59.3864 54.2863L59.4938 54.1789C59.5686 54.1043 59.648 54.0296 59.7274 53.955C59.8068 53.8803 59.8908 53.8057 59.9749 53.7404C59.9983 53.7217 60.0216 53.703 60.045 53.6844C60.1337 53.6144 60.2225 53.5397 60.3159 53.4697C60.3953 53.4091 60.4794 53.3531 60.5588 53.2924C60.6382 53.2364 60.7223 53.1805 60.8063 53.1291C60.9838 53.0125 61.166 52.9052 61.3528 52.8025C61.4696 52.7372 61.591 52.6765 61.7125 52.6206C61.8339 52.5599 61.96 52.5086 62.0815 52.4573C62.2029 52.4013 62.329 52.3499 62.4598 52.3079C62.5859 52.2613 62.712 52.2193 62.8428 52.1773C62.9736 52.14 63.1044 52.1026 63.2398 52.0653C63.2492 52.0653 63.2585 52.0607 63.2725 52.056C63.3846 52.028 63.4967 52 63.6042 51.9813C63.6182 51.9767 63.6369 51.972 63.6509 51.9673C63.7816 51.9393 63.9171 51.9207 64.0479 51.8974C64.1553 51.8787 64.2721 51.8647 64.3795 51.8507C64.4542 51.8414 64.5337 51.8367 64.6084 51.8274C64.8419 51.804 65.0708 51.7994 65.3043 51.7994H65.3324C65.4071 51.7994 65.4818 51.7994 65.5566 51.804C65.6126 51.804 65.664 51.804 65.7107 51.8087C65.7294 51.8087 65.7434 51.8087 65.7574 51.8087C65.7994 51.8087 65.8415 51.8087 65.8835 51.8134C65.9629 51.8134 66.0423 51.8274 66.1217 51.832C66.1357 51.832 66.1451 51.832 66.1544 51.832C66.2712 51.846 66.3926 51.86 66.5047 51.8787C66.6449 51.8974 66.7803 51.9207 66.9158 51.9487C72.5535 52.9798 77.3037 59.0314 84.8518 59.0314H85.8466C93.39 59.0314 98.1403 52.9892 103.773 51.9487C103.885 51.9253 104.002 51.9067 104.114 51.888C104.184 51.8787 104.259 51.8647 104.329 51.86C104.399 51.846 104.474 51.8367 104.544 51.832C104.679 51.818 104.815 51.8087 104.95 51.804C104.96 51.804 104.969 51.804 104.983 51.804C105.118 51.7947 105.254 51.79 105.389 51.79C109.981 51.79 113.699 55.504 113.699 60.0905C113.699 64.677 109.981 68.391 105.389 68.391C105.249 68.391 105.114 68.391 104.983 68.377C104.969 68.377 104.96 68.377 104.95 68.377C104.815 68.3724 104.679 68.3584 104.544 68.349C104.474 68.3444 104.399 68.335 104.329 68.321C104.259 68.3117 104.184 68.2977 104.114 68.293C104.002 68.2744 103.881 68.2557 103.773 68.2324C98.1403 67.1966 93.3947 61.1497 85.8466 61.1497H84.8518C82.6938 61.1497 80.7601 61.6442 78.9759 62.3768C78.9759 62.3768 78.9712 62.3768 78.9665 62.3768C78.9105 62.4001 78.8591 62.4188 78.803 62.4421C78.7843 62.4514 78.7657 62.4608 78.747 62.4701C77.9249 62.8667 77.3551 63.7112 77.3551 64.6864C77.3551 65.069 77.4438 65.4282 77.598 65.7502C77.598 65.7595 77.6073 65.7688 77.612 65.7782C77.626 65.8062 77.6353 65.8342 77.6493 65.8575C79.5037 69.3895 81.9045 73.1082 85.6224 76.3369L86.3744 76.9901C94.6698 84.1941 104.46 84.5534 109.551 87.6935C109.733 87.8008 109.906 87.9128 110.07 88.0341C110.144 88.0854 110.219 88.1368 110.294 88.1928C110.303 88.1974 110.312 88.2068 110.317 88.2114C110.392 88.2674 110.467 88.3234 110.541 88.3841C110.616 88.4447 110.691 88.5054 110.761 88.566C112.218 89.8258 113.241 91.5941 113.535 93.6518L113.526 93.6751Z" fill="#EF6416"/>
</svg>
